<svg width="80" height="80" viewBox="0 0 80 80" fill="none" xmlns="http://www.w3.org/2000/svg">
<rect width="80" height="80" rx="12" fill="#113E3E"/>
<path d="M60 40C60 44.6705 59.1171 48.6439 57.3514 51.9202C55.5996 55.1965 53.2082 57.699 50.1773 59.4278C47.1602 61.1426 43.7678 62 40 62C36.2044 62 32.7981 61.1356 29.781 59.4068C26.764 57.6781 24.3796 55.1755 22.6277 51.8992C20.8759 48.6229 20 44.6565 20 40C20 35.3295 20.8759 31.3561 22.6277 28.0799C24.3796 24.8035 26.764 22.308 29.781 20.5932C32.7981 18.8644 36.2044 18 40 18C43.7678 18 47.1602 18.8644 50.1773 20.5932C53.2082 22.308 55.5996 24.8035 57.3514 28.0799C59.1171 31.3561 60 35.3295 60 40ZM50.8446 40C50.8446 36.9747 50.3928 34.4233 49.4891 32.346C48.5992 30.2687 47.341 28.6933 45.7143 27.6198C44.0876 26.5463 42.1828 26.0095 40 26.0095C37.8172 26.0095 35.9124 26.5463 34.2857 27.6198C32.659 28.6933 31.3938 30.2687 30.4901 32.346C29.6003 34.4233 29.1554 36.9747 29.1554 40C29.1554 43.0254 29.6003 45.5767 30.4901 47.654C31.3938 49.7313 32.659 51.3067 34.2857 52.3802C35.9124 53.4537 37.8172 53.9905 40 53.9905C42.1828 53.9905 44.0876 53.4537 45.7143 52.3802C47.341 51.3067 48.5992 49.7313 49.4891 47.654C50.3928 45.5767 50.8446 43.0254 50.8446 40Z" fill="#96EDED"/>
</svg>
