<svg width="145" height="23" viewBox="0 0 145 23" fill="none" xmlns="http://www.w3.org/2000/svg">
<path d="M17.0373 9.27273C17.0373 11.1761 16.6765 12.7955 15.9549 14.1307C15.239 15.4659 14.2617 16.4858 13.0231 17.1903C11.7901 17.8892 10.4038 18.2386 8.86399 18.2386C7.31286 18.2386 5.92081 17.8864 4.68786 17.1818C3.4549 16.4773 2.48047 15.4574 1.76456 14.1222C1.04865 12.7869 0.690696 11.1705 0.690696 9.27273C0.690696 7.36932 1.04865 5.75 1.76456 4.41477C2.48047 3.07955 3.4549 2.0625 4.68786 1.36364C5.92081 0.659091 7.31286 0.306818 8.86399 0.306818C10.4038 0.306818 11.7901 0.659091 13.0231 1.36364C14.2617 2.0625 15.239 3.07955 15.9549 4.41477C16.6765 5.75 17.0373 7.36932 17.0373 9.27273ZM13.2958 9.27273C13.2958 8.03977 13.1112 7 12.7418 6.15341C12.3782 5.30682 11.864 4.66477 11.1992 4.22727C10.5344 3.78977 9.75604 3.57102 8.86399 3.57102C7.97195 3.57102 7.19354 3.78977 6.52876 4.22727C5.86399 4.66477 5.34695 5.30682 4.97763 6.15341C4.61399 7 4.43217 8.03977 4.43217 9.27273C4.43217 10.5057 4.61399 11.5455 4.97763 12.392C5.34695 13.2386 5.86399 13.8807 6.52876 14.3182C7.19354 14.7557 7.97195 14.9744 8.86399 14.9744C9.75604 14.9744 10.5344 14.7557 11.1992 14.3182C11.864 13.8807 12.3782 13.2386 12.7418 12.392C13.1112 11.5455 13.2958 10.5057 13.2958 9.27273ZM19.7028 22.9091V4.90909H23.2823V7.10795H23.4442C23.6033 6.75568 23.8335 6.39773 24.1346 6.03409C24.4414 5.66477 24.8391 5.35795 25.3278 5.11364C25.8221 4.86364 26.4357 4.73864 27.1687 4.73864C28.1232 4.73864 29.0039 4.98864 29.8107 5.48864C30.6175 5.98295 31.2624 6.73011 31.7454 7.73011C32.2283 8.72443 32.4698 9.97159 32.4698 11.4716C32.4698 12.9318 32.234 14.1648 31.7624 15.1705C31.2965 16.1705 30.6602 16.929 29.8533 17.446C29.0522 17.9574 28.1545 18.2131 27.1602 18.2131C26.4556 18.2131 25.8562 18.0966 25.3619 17.8636C24.8732 17.6307 24.4727 17.3381 24.1602 16.9858C23.8477 16.6278 23.609 16.267 23.4442 15.9034H23.3335V22.9091H19.7028ZM23.2567 11.4545C23.2567 12.233 23.3647 12.9119 23.5806 13.4915C23.7965 14.071 24.109 14.5227 24.5181 14.8466C24.9272 15.1648 25.4244 15.3239 26.0096 15.3239C26.6005 15.3239 27.1005 15.1619 27.5096 14.8381C27.9187 14.5085 28.2283 14.054 28.4386 13.4744C28.6545 12.8892 28.7624 12.2159 28.7624 11.4545C28.7624 10.6989 28.6573 10.0341 28.4471 9.46023C28.2369 8.88636 27.9272 8.4375 27.5181 8.11364C27.109 7.78977 26.6062 7.62784 26.0096 7.62784C25.4187 7.62784 24.9187 7.78409 24.5096 8.09659C24.1062 8.40909 23.7965 8.85227 23.5806 9.42614C23.3647 10 23.2567 10.6761 23.2567 11.4545ZM40.8562 18.2557C39.5096 18.2557 38.3505 17.983 37.3789 17.4375C36.413 16.8864 35.6687 16.108 35.146 15.1023C34.6232 14.0909 34.3619 12.8949 34.3619 11.5142C34.3619 10.1676 34.6232 8.9858 35.146 7.96875C35.6687 6.9517 36.4045 6.15909 37.3533 5.59091C38.3079 5.02273 39.4272 4.73864 40.7113 4.73864C41.5749 4.73864 42.3789 4.87784 43.1232 5.15625C43.8732 5.42898 44.5266 5.84091 45.0835 6.39205C45.646 6.94318 46.0835 7.63636 46.396 8.47159C46.7085 9.30114 46.8647 10.2727 46.8647 11.3864V12.3835H35.8107V10.1335H43.4471C43.4471 9.6108 43.3335 9.14773 43.1062 8.74432C42.8789 8.34091 42.5636 8.02557 42.1602 7.7983C41.7624 7.56534 41.2994 7.44886 40.771 7.44886C40.2198 7.44886 39.7312 7.5767 39.305 7.83239C38.8846 8.08239 38.555 8.42045 38.3164 8.84659C38.0778 9.26705 37.9556 9.7358 37.9499 10.2528V12.392C37.9499 13.0398 38.0692 13.5994 38.3079 14.071C38.5522 14.5426 38.896 14.9062 39.3391 15.1619C39.7823 15.4176 40.3079 15.5455 40.9158 15.5455C41.3192 15.5455 41.6886 15.4886 42.0238 15.375C42.359 15.2614 42.646 15.0909 42.8846 14.8636C43.1232 14.6364 43.305 14.358 43.43 14.0284L46.788 14.25C46.6175 15.0568 46.2681 15.7614 45.7397 16.3636C45.217 16.9602 44.5408 17.4261 43.7113 17.7614C42.8874 18.0909 41.9357 18.2557 40.8562 18.2557ZM52.8647 10.4318V18H49.234V4.90909H52.6942V7.21875H52.8477C53.1374 6.45739 53.6232 5.85511 54.305 5.41193C54.9869 4.96307 55.8136 4.73864 56.7852 4.73864C57.6942 4.73864 58.4869 4.9375 59.163 5.33523C59.8391 5.73295 60.3647 6.30114 60.7397 7.03977C61.1147 7.77273 61.3022 8.64773 61.3022 9.66477V18H57.6715V10.3125C57.6772 9.51136 57.4727 8.88636 57.0579 8.4375C56.6431 7.98295 56.0721 7.75568 55.3448 7.75568C54.8562 7.75568 54.4244 7.8608 54.0494 8.07102C53.68 8.28125 53.3903 8.58807 53.18 8.99148C52.9755 9.3892 52.8704 9.86932 52.8647 10.4318ZM64.2319 0.545454H68.783L73.5898 12.2727H73.7944L78.6012 0.545454H83.1523V18H79.5728V6.6392H79.4279L74.9109 17.9148H72.4734L67.9563 6.59659H67.8114V18H64.2319V0.545454ZM89.8576 18.2472C89.0224 18.2472 88.2781 18.1023 87.6246 17.8125C86.9712 17.517 86.4542 17.0824 86.0735 16.5085C85.6985 15.929 85.511 15.2074 85.511 14.3438C85.511 13.6165 85.6445 13.0057 85.9116 12.5114C86.1786 12.017 86.5423 11.6193 87.0025 11.3182C87.4627 11.017 87.9854 10.7898 88.5707 10.6364C89.1616 10.483 89.7809 10.375 90.4286 10.3125C91.19 10.233 91.8036 10.1591 92.2695 10.0909C92.7354 10.017 93.0735 9.90909 93.2837 9.76705C93.494 9.625 93.5991 9.41477 93.5991 9.13636V9.08523C93.5991 8.54545 93.4286 8.12784 93.0877 7.83239C92.7525 7.53693 92.2752 7.3892 91.6559 7.3892C91.0025 7.3892 90.4826 7.53409 90.0962 7.82386C89.7099 8.10795 89.4542 8.46591 89.3292 8.89773L85.9712 8.625C86.1417 7.82955 86.4769 7.14205 86.9769 6.5625C87.4769 5.97727 88.1218 5.52841 88.9116 5.21591C89.707 4.89773 90.6275 4.73864 91.6729 4.73864C92.4002 4.73864 93.0962 4.82386 93.761 4.99432C94.4315 5.16477 95.0252 5.42898 95.5423 5.78693C96.065 6.14489 96.4769 6.60511 96.7781 7.16761C97.0792 7.72443 97.2298 8.39205 97.2298 9.17045V18H93.7866V16.1847H93.6843C93.4741 16.5938 93.1928 16.9545 92.8406 17.267C92.4883 17.5739 92.065 17.8153 91.5707 17.9915C91.0763 18.1619 90.5053 18.2472 89.8576 18.2472ZM90.8974 15.7415C91.4315 15.7415 91.9031 15.6364 92.3121 15.4261C92.7212 15.2102 93.0423 14.9205 93.2752 14.5568C93.5082 14.1932 93.6246 13.7812 93.6246 13.321V11.9318C93.511 12.0057 93.3548 12.0739 93.1559 12.1364C92.9627 12.1932 92.744 12.2472 92.4996 12.2983C92.2553 12.3437 92.011 12.3864 91.7667 12.4261C91.5224 12.4602 91.3008 12.4915 91.1019 12.5199C90.6758 12.5824 90.3036 12.6818 89.9854 12.8182C89.6673 12.9545 89.4201 13.1392 89.244 13.3722C89.0678 13.5994 88.9798 13.8835 88.9798 14.2244C88.9798 14.7188 89.1587 15.0966 89.5167 15.358C89.8803 15.6136 90.3406 15.7415 90.8974 15.7415ZM100.047 18V4.90909H103.566V7.19318H103.703C103.941 6.38068 104.342 5.76705 104.904 5.35227C105.467 4.93182 106.115 4.72159 106.848 4.72159C107.029 4.72159 107.225 4.73295 107.436 4.75568C107.646 4.77841 107.831 4.80966 107.99 4.84943V8.07102C107.819 8.01989 107.583 7.97443 107.282 7.93466C106.981 7.89489 106.706 7.875 106.456 7.875C105.922 7.875 105.444 7.99148 105.024 8.22443C104.609 8.4517 104.279 8.76989 104.035 9.17898C103.797 9.58807 103.677 10.0597 103.677 10.5938V18H100.047ZM113.157 14.233L113.165 9.87784H113.694L117.887 4.90909H122.054L116.421 11.4886H115.56L113.157 14.233ZM109.867 18V0.545454H113.498V18H109.867ZM118.049 18L114.196 12.2983L116.617 9.73295L122.301 18H118.049ZM129.262 18.2557C127.916 18.2557 126.757 17.983 125.785 17.4375C124.819 16.8864 124.075 16.108 123.552 15.1023C123.029 14.0909 122.768 12.8949 122.768 11.5142C122.768 10.1676 123.029 8.9858 123.552 7.96875C124.075 6.9517 124.811 6.15909 125.76 5.59091C126.714 5.02273 127.833 4.73864 129.118 4.73864C129.981 4.73864 130.785 4.87784 131.529 5.15625C132.279 5.42898 132.933 5.84091 133.49 6.39205C134.052 6.94318 134.49 7.63636 134.802 8.47159C135.115 9.30114 135.271 10.2727 135.271 11.3864V12.3835H124.217V10.1335H131.853C131.853 9.6108 131.74 9.14773 131.512 8.74432C131.285 8.34091 130.97 8.02557 130.566 7.7983C130.169 7.56534 129.706 7.44886 129.177 7.44886C128.626 7.44886 128.137 7.5767 127.711 7.83239C127.291 8.08239 126.961 8.42045 126.723 8.84659C126.484 9.26705 126.362 9.7358 126.356 10.2528V12.392C126.356 13.0398 126.475 13.5994 126.714 14.071C126.958 14.5426 127.302 14.9062 127.745 15.1619C128.189 15.4176 128.714 15.5455 129.322 15.5455C129.725 15.5455 130.095 15.4886 130.43 15.375C130.765 15.2614 131.052 15.0909 131.291 14.8636C131.529 14.6364 131.711 14.358 131.836 14.0284L135.194 14.25C135.024 15.0568 134.674 15.7614 134.146 16.3636C133.623 16.9602 132.947 17.4261 132.118 17.7614C131.294 18.0909 130.342 18.2557 129.262 18.2557ZM144.603 4.90909V7.63636H136.72V4.90909H144.603ZM138.51 1.77273H142.14V13.9773C142.14 14.3125 142.191 14.5739 142.294 14.7614C142.396 14.9432 142.538 15.071 142.72 15.1449C142.907 15.2187 143.123 15.2557 143.368 15.2557C143.538 15.2557 143.708 15.2415 143.879 15.2131C144.049 15.179 144.18 15.1534 144.271 15.1364L144.842 17.8381C144.66 17.8949 144.404 17.9602 144.075 18.0341C143.745 18.1136 143.345 18.1619 142.873 18.179C141.998 18.2131 141.231 18.0966 140.572 17.8295C139.919 17.5625 139.41 17.1477 139.047 16.5852C138.683 16.0227 138.504 15.3125 138.51 14.4545V1.77273Z" fill="#96EDED"/>
</svg>
